<svg width="56" height="46" viewBox="0 0 56 46" fill="none" xmlns="http://www.w3.org/2000/svg">
<path d="M8.67432 40.8256C8.67432 32.4983 8.97128 24.1971 8.97128 15.8804C8.97128 13.1382 8.62536 10.1515 8.98778 7.43327C9.13483 6.33039 9.56522 5.09157 9.56522 4.00165" stroke="black" stroke-width="3" stroke-linecap="round"/>
<path d="M2.14099 43.2014C5.19544 43.2014 8.24271 42.6075 11.347 42.6075C15.9225 42.6075 20.498 42.6075 25.0735 42.6075C29.7264 42.6075 34.5178 42.3115 39.13 42.9704C41.553 43.3166 43.9995 43.0134 46.4222 43.3499C48.8821 43.6915 51.3344 43.7953 53.8134 43.7953" stroke="black" stroke-width="3" stroke-linecap="round"/>
<path d="M9.56519 3.11075C10.1673 2.57552 12.4942 2.51681 13.3598 2.51681C14.7126 2.51681 16.0655 2.51681 17.4183 2.51681C18.8333 2.51681 20.2608 2.56919 21.6749 2.51681C23.0302 2.46662 24.3446 1.92288 25.7499 1.92288C28.825 1.92288 32.0345 1.70219 34.9724 2.23635C36.7325 2.55635 35.9953 6.35541 35.9953 7.71375C35.9953 13.3066 35.9953 18.8995 35.9953 24.4924C35.9953 25.3821 35.9713 26.2758 35.9953 27.1651C36.0221 28.1573 36.5892 28.9962 36.5892 29.9863C36.5892 31.9495 36.3701 34.0292 36.8202 35.9422C37.2846 37.9157 37.1832 44.0409 37.1832 42.0135" stroke="black" stroke-width="3" stroke-linecap="round"/>
<path d="M29.1651 22.7106C28.0158 23.7322 26.1733 19.5814 28.8682 20.9288" stroke="black" stroke-width="3" stroke-linecap="round"/>
</svg>
