<svg width="66" height="54" viewBox="0 0 66 54" fill="none" xmlns="http://www.w3.org/2000/svg">
<path d="M2 43.2014C5.05445 43.2014 8.10172 42.6075 11.206 42.6075C15.7815 42.6075 20.357 42.6075 24.9325 42.6075C29.5854 42.6075 34.3768 42.3115 38.989 42.9704C41.412 43.3166 43.8585 43.0134 46.2812 43.3499C48.7411 43.6915 51.1934 43.7953 53.6724 43.7953" stroke="black" stroke-width="3" stroke-linecap="round"/>
<path d="M9.36649 41.5255C9.63049 36.5095 9.69477 31.4773 9.69477 26.4245C9.69477 24.4274 9.03821 22.5203 9.03821 20.5154C9.03821 19.257 9.03821 17.9986 9.03821 16.7402C9.03821 12.9178 9.69477 9.25517 9.69477 5.41446" stroke="black" stroke-width="3" stroke-linecap="round"/>
<path d="M10.6797 3.77306C13.7611 3.77306 15.9396 5.95851 18.8867 6.80055C20.3317 7.2134 21.7862 7.83284 23.2274 8.29606C23.9372 8.52422 24.3122 9.14534 24.9782 9.33562C26.0922 9.65389 29.546 9.99063 30.0483 10.9953" stroke="black" stroke-width="3" stroke-linecap="round"/>
<path d="M30.0483 10.9953C31.0961 13.2218 30.3766 17.0933 30.3766 19.5306C30.3766 23.3849 30.3766 27.2392 30.3766 31.0934C30.3766 34.8054 30.5932 38.6856 30.0301 42.3462C29.7304 44.2942 29.3917 46.0891 29.3917 48.0912" stroke="black" stroke-width="3" stroke-linecap="round"/>
<path d="M8.70996 40.869C9.4616 41.036 10.5584 42.555 11.3545 43.0028C12.4132 43.5984 13.5356 44.2411 14.619 44.6624C16.9281 45.5604 18.9775 47.4618 21.1847 48.5654C22.168 49.057 23.1992 49.6234 24.2122 50.0609C25.0742 50.4331 25.9896 51.1882 26.9114 51.3558C27.2158 51.4111 27.7521 51.2441 28.0057 51.4469C28.8902 52.1545 29.3918 52.8094 29.3918 51.2281C29.3918 49.9636 29.3918 48.6991 29.3918 47.4346" stroke="black" stroke-width="3" stroke-linecap="round"/>
<path d="M16.9746 42.8906C16.8464 42.9049 16.8158 43.0173 16.7114 42.9129C16.6537 42.8552 16.477 42.8493 16.4549 42.7501C16.4202 42.5939 16.4081 42.6052 16.2921 42.4891C16.2506 42.4477 16.11 42.3359 16.0512 42.3285C15.9154 42.3116 15.722 42.1242 15.6252 42.0274C15.4105 41.8127 15.205 41.5685 14.9471 41.4252C14.5734 41.2176 14.1995 41.1682 13.9234 40.823C13.8197 40.6934 13.5728 40.6818 13.4728 40.5219C13.4104 40.422 13.3133 40.3504 13.2409 40.2498C13.195 40.1861 13.0589 40.0196 13 40" stroke="white" stroke-width="3" stroke-linecap="round"/>
<path d="M12.0853 40.7958C12.1023 40.949 12.4906 41.0179 12.6072 41.117C12.7429 41.2323 12.9533 41.2919 13.1091 41.3757C13.7127 41.7008 14.4149 41.898 15.0562 42.1474C15.3623 42.2665 15.6518 42.4589 15.9216 42.6426C16.183 42.8206 16.4929 42.9447 16.7246 43.1645C17.0882 43.5094 17.4801 43.6723 17.9424 43.8649C18.3919 44.0522 18.8807 44.1967 19.2806 44.4805C19.873 44.9009 20.4178 45.3295 21.0962 45.6135C21.2943 45.6964 21.4642 45.8194 21.6493 45.9258C21.8545 46.0436 22.0912 46.1009 22.2961 46.2157C22.6394 46.408 22.9558 46.6533 23.2954 46.8492C24.0871 47.3059 24.9837 47.6832 25.8514 47.9621C26.1272 48.0508 26.3641 48.2553 26.6164 48.3814C26.699 48.4227 26.699 48.4206 26.699 48.3168C26.699 47.9706 26.6124 47.6431 26.5874 47.2997C26.5196 46.3654 26.6271 45.4385 26.6566 44.5095C26.675 43.9284 26.6588 43.3444 26.6588 42.763C26.6588 42.3326 26.7311 41.9085 26.7391 41.4783C26.7418 41.3345 26.8048 41.2041 26.8172 41.0612C26.8316 40.8955 26.8132 40.9632 26.922 40.9943C27.139 41.0563 27.1458 41.7857 27.0915 41.969C27.0325 42.1683 27.0603 42.3959 27.0603 42.6025C27.0603 42.8662 26.9868 43.0611 26.9421 43.3073C26.9038 43.5176 26.7874 43.8673 26.5696 43.9496C26.2499 44.0704 25.7315 43.7396 25.4633 43.6195C24.642 43.2519 23.8383 42.7879 22.9385 42.6471C21.9358 42.4901 20.8958 42.5654 19.8873 42.6025C19.0655 42.6326 16.6005 42.7034 17.4205 42.6404C18.6063 42.5492 19.7906 42.431 20.9757 42.3303C21.7517 42.2644 22.5287 42.2036 23.3065 42.1631C23.4215 42.1571 23.5414 42.1533 23.6567 42.1408C23.825 42.1225 23.668 42.1346 23.6433 42.1385C22.5579 42.3099 21.3992 42.1766 20.3133 42.0783C19.8228 42.0339 19.332 41.9822 18.8524 41.8664C18.6249 41.8115 18.5547 41.7331 18.839 41.6657C19.3899 41.5351 20.0094 41.5738 20.5698 41.5497C21.7525 41.4988 22.9349 41.4792 24.1184 41.4583C24.4936 41.4516 24.84 41.4426 25.2135 41.4426C25.2475 41.4426 25.794 41.4009 25.8737 41.4872C25.9022 41.5182 25.057 41.7194 25.0462 41.7214C23.5221 42.0164 21.9636 42.1337 20.4449 42.4508C20.1698 42.5082 19.0719 42.712 19.5907 43.1846C20.117 43.6642 21.0048 43.8114 21.6716 43.9764C21.9325 44.0409 22.2273 44.1073 22.45 44.2663C22.4588 44.2726 22.6569 44.4335 22.5593 44.4314C22.3755 44.4274 22.1658 44.3192 22.0017 44.253C21.3155 43.976 20.6454 43.6546 19.9832 43.3251C19.0458 42.8587 17.8902 42.3034 17.3558 41.3445C17.3145 41.2705 17.1217 40.8344 17.1617 40.8538C17.3456 40.9431 17.5096 40.9876 17.706 41.0367" stroke="white" stroke-width="3" stroke-linecap="round"/>
<path d="M25.9905 31.4569C25.3789 31.4569 25.407 30.3089 26.2775 30.3089" stroke="black" stroke-width="3" stroke-linecap="round"/>
<path d="M10.9232 2.47028C16.0627 2.47028 21.1687 2.71803 26.3094 2.75727C28.2267 2.77191 30.1181 2.96595 32.0174 3.15588C33.3734 3.29147 34.6824 3.23064 36.0354 3.44287C37.1641 3.61994 38.3317 3.61826 39.4793 3.61826" stroke="black" stroke-width="3" stroke-linecap="round"/>
<path d="M37.7573 42.2192C37.7573 41.5081 38.272 40.975 38.3233 40.282C38.4867 38.0765 39.1114 35.9295 39.1843 33.705C39.3544 28.5188 39.6994 23.2763 39.2082 18.1195C38.9343 15.2434 39.6228 12.3779 39.6228 9.50168C39.6228 7.82754 39.6228 6.15339 39.6228 4.47925" stroke="black" stroke-width="3" stroke-linecap="round"/>
<path d="M63.7777 22.8548C61.4981 22.226 58.804 22.4914 56.4586 22.3735C53.5684 22.2283 50.6919 21.8092 47.7952 21.8092" stroke="black" stroke-width="3" stroke-linecap="round"/>
<path d="M49.2888 18.9712C49.1439 19.6959 47.5842 20.362 47.0483 20.7968C46.6483 21.1213 46.2142 21.4484 45.8533 21.8092C44.7409 22.9217 49.0821 24.9232 49.4382 25.9916" stroke="black" stroke-width="3" stroke-linecap="round"/>
</svg>
