<svg width="485" height="383" viewBox="0 0 485 383" fill="none" xmlns="http://www.w3.org/2000/svg">
<path d="M21.3224 328.235C25.2482 328.235 29.5614 325.86 33.446 324.888C40.1151 323.221 47.8527 322.88 54.718 322.88C63.3484 322.88 69.1218 321.733 75.9156 326.897C88.8445 336.723 98.4985 349.113 114.741 354.714C126.656 358.823 139.056 361.641 151.186 365.052C171.861 370.867 193.263 371.863 214.109 376.432C259.622 386.408 307.187 369.481 352.006 363.342C370.655 360.787 385.297 351.74 401.616 343.037C414.575 336.125 430.616 326.557 438.73 313.806C447.955 299.31 455.555 284.887 459.779 267.99C464.983 247.174 471.872 226.409 474.878 205.066C476.139 196.11 478.069 187.274 479.192 178.29C480.358 168.959 479.836 159.521 481.2 150.25C483.755 132.876 481.09 114.997 480.53 97.6646C480.093 84.0901 475.319 71.3501 472.423 58.3187C469.064 43.2035 458.01 18.8701 442.747 12.2789C434.977 8.924 426.665 8.26254 418.276 8.26254C401.78 8.26254 384.57 7.7208 368.146 6.25435C335.358 3.32686 302.498 2.90735 269.595 2.90735C241.607 2.90735 213.75 3.73822 185.995 7.59314C166.282 10.331 145.635 13.3336 125.749 13.6177C110.235 13.8394 92.6909 14.8629 77.552 18.3035C62.6795 21.6836 46.1311 20.7398 32.0328 27.0057C23.3922 30.846 13.1155 31.6644 8.6782 41.8069C4.47255 51.4198 2.57922 63.2041 2.57922 73.5662C2.57922 103.927 5.69631 132.789 17.6035 161.183C28.7841 187.844 36.3675 216.794 41.1069 245.23C42.973 256.427 45.9933 270.014 50.1066 280.708C52.3573 286.56 50.776 295.184 50.776 301.46C50.776 311.175 29.6218 315.653 25.3388 324.219" stroke="black" stroke-width="5" stroke-linecap="round"/>
</svg>
