<svg width="659" height="359" viewBox="0 0 659 359" fill="none" xmlns="http://www.w3.org/2000/svg">
<path d="M3.324 53.846V23.4556C3.324 18.362 7.15824 12.2947 10.8563 10.1632C13.7203 8.51243 20.3061 6.08969 23.4101 6.08969C27.6932 6.08969 31.9633 4.16014 36.4289 4.16014C44.1097 4.16014 51.7583 2.23059 59.5837 2.23059H90.7822C114.523 2.23059 138.288 3.19537 161.967 3.19537C218.791 3.19537 275.388 8.01924 332.234 8.01924H390.446C398.469 8.01924 407.101 9.00899 415.043 7.48325C420.964 6.34554 426.98 5.51644 432.99 5.17851C457.115 3.8219 481.079 3.19537 505.29 3.19537C510.995 3.19537 516.479 4.72613 522.168 5.07132C527.638 5.40314 533.08 4.84045 538.535 5.6073C554.562 7.86049 571.539 6.08969 587.681 6.08969C607.75 6.08969 630.204 6.57711 646.451 21.9013C650.823 26.0248 650.795 30.8382 652.124 36.9625C653.882 45.0715 655.285 52.7011 655.285 61.1354V118.218C655.285 168.893 656.959 219.251 656.959 269.902C656.959 291.066 657.869 311.493 651.101 331.433C649.291 336.763 645.787 340.465 643.104 345.208C641.477 348.083 638.495 352.183 635.571 353.408C628.158 356.516 621.79 356.303 613.858 356.303C583.697 356.303 554.147 355.109 524.261 349.978C495.266 345 466.291 345.69 437.035 345.69C377.011 345.69 317.034 355.997 257.004 350.032C240.331 348.375 223.706 351.875 207.118 350.032C193.741 348.545 181.433 352.166 168.105 350.032C142.838 350.032 120.791 351.569 97.357 355.428C81.1063 358.104 54.5633 358.051 38.535 353.564C28.318 350.703 20.3886 338.938 12.5766 330.683C10.1127 328.079 7.42012 321.117 6.02075 317.712C3.99667 312.786 4.99784 304.746 4.99784 299.435C4.99784 290.037 4.37328 280.705 4.16092 271.403C3.98141 263.539 2.48708 255.91 2.48708 248.034C2.48708 234.08 0.877614 218.488 3.50998 204.833C6.16989 191.035 5.256 178.696 4.20742 164.795C3.16904 151.029 4.16092 136.651 4.16092 122.827C4.16092 110.799 5.83476 98.9088 5.83476 87.1307C5.83476 80.2278 6.53026 72.8021 5.78827 65.9593C5.33844 61.8109 3.324 58.2599 3.324 53.846Z" stroke="black" stroke-width="3" stroke-linecap="round"/>
</svg>
