<svg width="63" height="65" viewBox="0 0 63 65" fill="none" xmlns="http://www.w3.org/2000/svg">
<path d="M3.84067 58.8376C4.70413 58.8288 5.76074 57.6502 6.61526 57.2955C7.92828 56.7505 8.99756 55.7813 10.2697 55.159C13.647 53.5068 17.708 52.4138 21.3793 51.5882C29.7301 49.7101 37.9323 49.3859 46.427 48.4668C49.4267 48.1422 52.3891 48.5752 55.347 47.8635C56.1767 47.6638 56.9926 47.8017 57.8271 47.8859" stroke="#ECA50C" stroke-width="7" stroke-linecap="round"/>
<path d="M4.77505 57.702C5.30942 52.4045 5.60438 47.2723 5.51689 41.9943C5.47357 39.3815 4.94543 36.6564 5.11115 34.0508C5.25271 31.8249 3.92507 29.5533 4.15198 27.3039" stroke="#ECA50C" stroke-width="7" stroke-linecap="round"/>
<path d="M58.8024 46.3446C58.7828 44.405 57.7497 42.4705 57.7298 40.4973C57.7039 37.9413 57.1415 35.6437 57.2717 33.0722C57.5325 27.9203 57.4911 22.7692 58.0156 17.5697" stroke="#ECA50C" stroke-width="7" stroke-linecap="round"/>
<path d="M5.93889 25.8444C8.36239 26.3362 10.4974 27.2055 12.4344 28.7315C13.7566 29.7732 15.6944 30.2408 16.7519 31.5356C17.1845 32.0652 19.1394 33.861 19.6698 33.7657C20.4126 33.6322 20.7486 27.8744 21.0758 27.0525C21.8021 25.2279 22.669 22.5469 22.8671 20.5831C23.0106 19.1598 23.2328 16.1837 23.9361 14.9519C24.529 13.9134 25.0101 11.5301 25.1283 10.3578C25.2874 8.78052 25.8398 7.36866 26.0049 5.73201C26.2377 3.4238 26.9329 3.62609 28.323 5.32817C28.8134 5.92853 29.5785 6.25749 30.0803 6.87189C30.695 7.62448 31.1788 8.4195 31.8054 9.18668C35.3764 13.5589 37.568 18.8396 40.9472 23.3179C41.6515 24.2512 43.2306 28.7407 44.374 28.8561C45.4835 28.968 47.2875 24.4732 48.0672 23.6262C50.4884 20.996 52.7601 17.6881 54.6089 14.7664" stroke="#ECA50C" stroke-width="7" stroke-linecap="round"/>
<path d="M54.1214 15.5371C54.8316 15.5202 57.2375 12.2247 57.1667 13.7946C57.0785 15.7523 57.5977 17.6498 57.4052 19.5578" stroke="#ECA50C" stroke-width="7" stroke-linecap="round"/>
</svg>
